<svg width="24" height="24" viewBox="0 0 24 24" fill="none" xmlns="http://www.w3.org/2000/svg">
<path d="M3.25 23.75C3.11738 23.7495 2.99036 23.6965 2.89668 23.6026C2.80299 23.5087 2.75026 23.3816 2.75 23.249L2.755 20.085V20.08L2.764 19.347L2.76 16.23C2.7596 16.1642 2.77226 16.0989 2.79723 16.038C2.82221 15.9771 2.859 15.9218 2.9055 15.8752C2.952 15.8286 3.00727 15.7917 3.06811 15.7666C3.12896 15.7415 3.19418 15.7287 3.26 15.729H8.61C5.241 14.817 2.757 11.754 2.757 8.12599C2.757 3.78199 6.319 0.248993 10.697 0.248993L20.722 0.251993C20.8544 0.251993 20.9815 0.304534 21.0752 0.398086C21.1689 0.491638 21.2217 0.618558 21.222 0.750993L21.227 4.62899L21.222 7.75299C21.2217 7.88543 21.1689 8.01235 21.0752 8.1059C20.9815 8.19945 20.8544 8.25199 20.722 8.25199H15.357C18.746 9.15099 21.248 12.223 21.248 15.862C21.248 20.206 17.685 23.739 13.306 23.739L3.25 23.75ZM3.755 20.09L3.751 22.75L13.307 22.74C17.136 22.74 20.25 19.655 20.25 15.863C20.25 12.071 17.136 8.98599 13.309 8.98599L10.702 9.00099C10.216 9.00099 9.824 8.60899 9.824 8.12699C9.824 7.64499 10.217 7.25299 10.699 7.25299H20.225L20.229 3.89399L20.225 1.25299L10.698 1.24999C6.871 1.24999 3.758 4.33499 3.758 8.12699C3.758 11.92 6.871 15.006 10.698 15.006H13.293C13.5127 15.0188 13.7192 15.1151 13.8703 15.2752C14.0213 15.4352 14.1055 15.6469 14.1056 15.867C14.1058 16.0871 14.0218 16.2989 13.8709 16.4591C13.7201 16.6194 13.5137 16.7159 13.294 16.729H3.761L3.764 19.351L3.755 20.09Z" fill="white"/>
<path d="M3.514 20.017C3.38139 20.017 3.25421 19.9643 3.16045 19.8706C3.06668 19.7768 3.014 19.6496 3.014 19.517C3.014 19.3844 3.06668 19.2572 3.16045 19.1634C3.25421 19.0697 3.38139 19.017 3.514 19.017L13.606 19.014C14.4184 19.0132 15.1973 18.6901 15.7717 18.1157C16.3461 17.5413 16.6692 16.7624 16.67 15.95C16.6695 15.1372 16.3466 14.3577 15.7722 13.7826C15.1979 13.2075 14.4188 12.8836 13.606 12.882L10.941 12.853C9.66358 12.8519 8.43871 12.3444 7.53497 11.4416C6.63123 10.5388 6.12238 9.31441 6.12 8.037C6.12053 6.76029 6.62745 5.53593 7.52956 4.6325C8.43167 3.72908 9.6553 3.22038 10.932 3.218L20.728 3.215C20.8606 3.215 20.9878 3.26767 21.0816 3.36144C21.1753 3.45521 21.228 3.58239 21.228 3.715C21.228 3.8476 21.1753 3.97478 21.0816 4.06855C20.9878 4.16232 20.8606 4.215 20.728 4.215L10.932 4.218C9.92043 4.22011 8.95101 4.62338 8.23637 5.33932C7.52174 6.05526 7.12026 7.02543 7.12 8.037C7.12238 9.05006 7.52656 10.0208 8.24385 10.7362C8.96113 11.4516 9.93293 11.8533 10.946 11.853L13.611 11.882C14.6882 11.8849 15.7203 12.3147 16.4811 13.0772C17.2419 13.8398 17.6695 14.8728 17.67 15.95C17.6689 17.0275 17.2404 18.0606 16.4785 18.8225C15.7166 19.5844 14.6835 20.0129 13.606 20.014L3.514 20.017Z" fill="white"/>
</svg>
